REM DIRINDEX 1\2,1\3
REM DIRNAME folder01,folder02,folder03
TITLE ""
FILE "Disk1Track20.mp3" MP3
  TRACK 01 AUDIO
    TITLE "2:cjc071_0167"
    INDEX 01 00:00:00
  TRACK 02 AUDIO
    TITLE "2:cjc071_0168"
    INDEX 01 00:02:14
  TRACK 03 AUDIO
    TITLE "2:cjc071_0169"
    INDEX 01 00:04:68
  TRACK 04 AUDIO
    TITLE "2:cjc071_0170"
    INDEX 01 00:09:53
  TRACK 05 AUDIO
    TITLE "2:cjc071_0171"
    INDEX 01 00:13:45
  TRACK 06 AUDIO
    TITLE "0:"
    INDEX 01 00:18:46
